<svg xmlns="http://www.w3.org/2000/svg" version="1.1" xmlns:xlink="http://www.w3.org/1999/xlink" xmlns:svgjs="http://svgjs.dev/svgjs" width="100%" height="100%" viewBox="0 0 1000 600"><rect width="1000" height="600" x="0" y="0" fill="#1f5466"/><g><rect width="333.3333333333333" height="333.3333333333333" rx="13.333333333333334" ry="13.333333333333334" y="153.83838343075274" fill="#ffffff" transform="matrix(0.9497312379786158,0,0,0.9497312379786158,0,-4.393668186782207)" x="131.61614990234375"/><path d="M257.6306846615182 395.5050298341231L257.6306846615182 395.5050298341231Q252.55934557521854 395.5050298341231 246.55748555565282 394.0161963408975Q240.53236251275547 392.5506258710035 235.13534109981268 387.89802120467357Q229.7383196868699 383.2221535150119 226.29539223378566 373.8704181356886Q222.87572780403312 364.4954197330336 222.87572780403312 348.7928789841699L222.87572780403312 348.7928789841699L222.87572780403312 299.31242835775026Q222.87572780403312 286.7271327353277 225.2020301371981 278.3524443359337Q227.52833247036313 269.954492913208 231.3434682967537 264.92967987357156Q235.13534109981268 259.9048668339352 239.76468274281103 257.41572333744864Q244.37076136247774 254.90331681763044 249.0466290521394 254.135637047686Q253.69923371846937 253.36795727774154 257.6306846615182 253.36795727774154L257.6306846615182 253.36795727774154Q261.3992944412455 253.36795727774154 266.00537306091223 254.0891110010227Q270.6347147039106 254.8335277476355 275.21753030024564 257.2528821741271Q279.80034589658067 259.64897357728705 283.5922186996396 264.6505235935918Q287.40735452603025 269.6288105865649 289.7336568591952 278.0500250326222Q292.0599591923602 286.47123947867954 292.0599591923602 299.31242835775026L292.0599591923602 299.31242835775026L292.0599591923602 348.7928789841699Q292.0599591923602 364.33257856971204 288.4541905759545 373.66105092570376Q284.8716849828804 382.98952328169537 279.381611476611 387.6886539946887Q273.9148009936732 392.38778470768193 268.05251911409744 393.94640727090257Q262.2135002578533 395.5050298341231 257.6306846615182 395.5050298341231ZM257.6306846615182 378.89523117532497L257.6306846615182 378.89523117532497Q263.9349639843954 378.89523117532497 266.95915701750994 374.1495744156683Q269.9833500506244 369.4039176560118 269.9833500506244 356.3998876136194L269.9833500506244 356.3998876136194L269.9833500506244 293.4268834548428Q269.9833500506244 280.02738201581246 266.95915701750994 274.97930595284436Q263.9349639843954 269.954492913208 257.6306846615182 269.954492913208L257.6306846615182 269.954492913208Q251.16356417531955 269.954492913208 248.09284509554175 274.97930595284436Q245.0453890390956 280.02738201581246 245.0453890390956 293.4268834548428L245.0453890390956 293.4268834548428L245.0453890390956 356.3998876136194Q245.0453890390956 369.4039176560118 248.09284509554175 374.1495744156683Q251.16356417531955 378.89523117532497 257.6306846615182 378.89523117532497ZM311.8567920475944 394.2720895975456L311.8567920475944 245.50505539164382L332.53761978943123 245.50505539164382L332.53761978943123 272.0016389663932L331.49078373950704 291.30994833166267Q336.0503363125104 285.0056690087855 341.7032509821014 282.6793666756206Q347.3561656516923 280.3530643424556 353.0788693912782 280.3530643424556L353.0788693912782 280.3530643424556Q362.89586523723455 280.3530643424556 368.29288665017737 287.30870831861887Q373.68990806312013 294.2410892714506 373.68990806312013 307.98953606045575L373.68990806312013 307.98953606045575L373.68990806312013 394.2720895975456L352.9858172979516 394.2720895975456L352.9858172979516 310.432153510279Q352.9858172979516 303.0112490674827 350.70604101144994 300.1033711510264Q348.4030017016166 297.1954932345701 343.9830272686031 297.1954932345701L343.9830272686031 297.1954932345701Q340.8890451654936 297.1954932345701 337.91137817904246 299.31242835775026Q334.91044816925955 301.45262650426207 332.53761978943123 305.03513209733626L332.53761978943123 305.03513209733626L332.53761978943123 394.2720895975456L311.8567920475944 394.2720895975456Z " fill="#1f5466" transform="matrix(0.9497312379786158,0,0,0.9497312379786158,0,-4.393668186782207)"/><path d="M548.2828170211487 366.02895740267616L548.2828170211487 252.8552083442482L591.5357319402315 252.8552083442482L591.5357319402315 266.36821052158257L565.4332103006107 266.36821052158257L565.4332103006107 300.2355256020147L585.9194493058582 300.2355256020147L585.9194493058582 313.74852777934916L565.4332103006107 313.74852777934916L565.4332103006107 352.5159552253418L591.5357319402315 352.5159552253418L591.5357319402315 366.02895740267616L548.2828170211487 366.02895740267616ZM594.5888788756961 366.02895740267616L613.5485444132113 319.7228955481287L595.5123615907441 274.79263447314247L612.6816014562276 274.79263447314247L622.4252864292845 304.68331990306206L622.5572125314342 304.68331990306206L632.8851416711542 274.79263447314247L648.9235863753544 274.79263447314247L631.6224204077213 318.1209357363108L651.0344040097497 366.02895740267616L633.8840107302876 366.02895740267616L622.6137522894984 334.55515874696016L622.0860478808995 334.55515874696016L610.6838633379605 366.02895740267616L594.5888788756961 366.02895740267616ZM677.0803858913063 359.9980498758324L677.6080902999051 371.19292197253617L677.6080902999051 395.5050179401252L660.8534753268923 395.5050179401252L660.8534753268923 274.79263447314247L673.9706991977775 274.79263447314247L675.4972726655099 284.4043933440498Q677.8154027461404 280.61622955375105 681.8485721547172 277.20499748388Q685.9005881493154 273.79376541400904 692.3838137406725 273.79376541400904L692.3838137406725 273.79376541400904Q694.5134779610892 273.79376541400904 697.6608578266607 274.62301519895004Q700.8082376922324 275.45226498389104 703.955617557804 278.5431050913985Q707.1029974233755 281.6150986128846 709.2138150577708 288.2490968924127Q711.3434792781876 294.86424858591954 711.3434792781876 306.53028533315796L711.3434792781876 306.53028533315796L711.3434792781876 334.1593804405111Q711.3434792781876 345.7500308436639 709.1761218857281 352.4217222952349Q707.0276110792901 359.07456716078445 703.8236914556543 362.221947026356Q700.6009252459971 365.3693268919277 697.3216192782758 366.23626984891143Q694.0423133105545 367.0843662198739 691.7241832299239 367.0843662198739L691.7241832299239 367.0843662198739Q686.4282925579142 367.0843662198739 682.8851343858935 364.9735485854785Q679.3419762138727 362.84388436506185 677.0803858913063 359.9980498758324L677.0803858913063 359.9980498758324ZM677.6080902999051 293.6769136665721L677.6080902999051 346.2211954941986Q678.7388854611884 348.80317777912865 680.6989304074126 350.85745565545983Q682.6401287676155 352.9117335317909 686.032514251465 352.9117335317909L686.032514251465 352.9117335317909Q688.4825704342453 352.9117335317909 690.3672290363841 351.5924725102939Q692.2518876385227 350.25436490277536 693.3449896277632 346.6546669726905Q694.4380916170036 343.0361224565843 694.4380916170036 336.2701980749064L694.4380916170036 336.2701980749064L694.4380916170036 303.9483030482279Q694.4380916170036 297.1258389084859 693.3826827998059 293.58268073646514Q692.3272739826083 290.0395225644445 690.4237687944482 288.701414956926Q688.5391101923095 287.38215393542896 686.0890540095293 287.38215393542896L686.0890540095293 287.38215393542896Q682.9793673160004 287.38215393542896 680.9250894396693 289.2668125375676Q678.8708115633381 291.15147113970625 677.6080902999051 293.6769136665721L677.6080902999051 293.6769136665721ZM726.1757424770191 366.02895740267616L726.1757424770191 245.50503979590735L742.9492040360534 245.50503979590735L742.9492040360534 366.02895740267616L726.1757424770191 366.02895740267616ZM783.0358925035431 367.0278264618097L783.0358925035431 367.0278264618097Q778.6634845465813 367.0278264618097 774.2156902455341 365.72741202633404Q769.7678959444868 364.44584417687975 766.0362719122522 360.46921452636707Q762.2858012939962 356.4925848758545 760.0430575574512 348.4450926447223Q757.7814672348848 340.37875382756874 757.7814672348848 326.8657516502343L757.7814672348848 326.8657516502343L757.7814672348848 312.5611928600017Q757.7814672348848 299.2366565428813 760.0995973155153 291.4530165160485Q762.417727396146 283.66937648921567 766.2058911864448 279.86236611289553Q769.9752083907221 276.0553557365754 774.4230026917694 274.8868674032494Q778.8519504067953 273.7372256559448 783.0924322616073 273.7372256559448L783.0924322616073 273.7372256559448Q787.2009880142697 273.7372256559448 791.5733959712314 274.8303276451853Q795.9458039281932 275.9234296344257 799.6585813744064 279.65505366666036Q803.3713588206195 283.4055242849163 805.6894889012501 291.26455065583457Q808.0076189818807 299.1047304407315 808.0076189818807 312.5611928600017L808.0076189818807 312.5611928600017L808.0076189818807 326.8657516502343Q808.0076189818807 340.19028796735483 805.6141025571645 348.1812404404228Q803.2394327184699 356.15334632746954 799.4512689281711 360.22420890808905Q795.6819517238937 364.31391807472994 791.3472369389748 365.6708722682698Q787.0125221540558 367.0278264618097 783.0358925035431 367.0278264618097ZM783.1678186056929 354.570233101673L783.1678186056929 354.570233101673Q787.6721526648042 354.570233101673 789.4248851647933 349.5947343920269Q791.1776176647822 344.6192356823807 791.1776176647822 331.8412503598805L791.1776176647822 331.8412503598805L791.1776176647822 309.1122676180879Q791.1776176647822 296.25889595150215 789.4248851647933 291.22685748379183Q787.6721526648042 286.1948190160815 783.1678186056929 286.1948190160815L783.1678186056929 286.1948190160815Q778.4561721003462 286.1948190160815 776.5338203261647 291.22685748379183Q774.6114685519832 296.25889595150215 774.6114685519832 309.1122676180879L774.6114685519832 309.1122676180879L774.6114685519832 331.8412503598805Q774.6114685519832 344.6192356823807 776.5338203261647 349.5947343920269Q778.4561721003462 354.570233101673 783.1678186056929 354.570233101673ZM822.8398821807122 366.02895740267616L822.8398821807122 274.79263447314247L835.109009680635 274.79263447314247L836.5601968042818 284.06515479566485Q839.2741051913615 278.90119022580484 842.9303428795105 276.31920794087483Q846.5677339816382 273.7372256559448 850.3370511859156 273.7372256559448L850.3370511859156 273.7372256559448Q864.4531441159343 273.7372256559448 864.4531441159343 291.4907096880912L864.4531441159343 291.4907096880912Q864.4531441159343 293.7334534246363 863.7935136051857 297.4273842848281Q863.1338830944372 301.10246855899857 862.2104003793893 303.8729167041424L862.2104003793893 303.8729167041424L850.5443636321507 303.8729167041424L850.5443636321507 296.7866003601009Q850.5443636321507 291.28339724185605 848.8858640622688 289.3421988816532Q847.2273644923868 287.38215393542896 844.7773083096064 287.38215393542896L844.7773083096064 287.38215393542896Q841.6676216160776 287.38215393542896 839.6133437397465 292.2822663009895L839.6133437397465 292.2822663009895L839.6133437397465 366.02895740267616L822.8398821807122 366.02895740267616ZM872.4064034169595 328.6561773222661L872.4064034169595 328.6561773222661L872.4064034169595 311.4303976987185Q872.4064034169595 300.97054245684876 874.1968290889913 294.0726919730213Q875.9872547610231 287.1748414891937 878.9273221803594 283.0662857365313Q881.8862361857172 278.95772998386894 885.4293943577378 276.97883845162335Q888.9725525297586 274.99994691937775 892.4780175297366 274.3591629946506Q896.0023291157358 273.7372256559448 898.9047033630294 273.7372256559448L898.9047033630294 273.7372256559448Q904.9356108898731 273.7372256559448 910.043035701669 276.28151476883204Q915.1504605134649 278.82580388171925 918.2224540349509 285.02633068275554Q921.3132941424584 291.22685748379183 921.3132941424584 302.2144171342603L921.3132941424584 302.2144171342603Q921.3132941424584 307.7176202525053 920.710203389774 313.4469824030069Q920.1071126370897 319.17634455350856 919.1270901639775 323.5487525104703L919.1270901639775 323.5487525104703L889.2364047340579 323.5487525104703L889.2364047340579 332.84011941901394Q889.2364047340579 344.7511617845305 891.2529894383464 349.6701207361124Q893.2884207286562 354.570233101673 898.980089707115 354.570233101673L898.980089707115 354.570233101673Q902.0897764006438 354.570233101673 904.6152189275095 351.8751713006146Q907.1218148683541 349.1989560855777 907.1218148683541 341.98071363938664L907.1218148683541 341.98071363938664L907.1218148683541 338.00408398887396L920.9175158360093 338.00408398887396L920.9175158360093 342.16917949960043Q920.9175158360093 355.154477268336 914.7169890349729 361.0911518650729Q908.5164622339367 367.0278264618097 896.7938857286341 367.0278264618097L896.7938857286341 367.0278264618097Q884.995922879246 367.0278264618097 878.7011631481028 358.0191583435868Q872.4064034169595 348.99164363934244 872.4064034169595 328.6561773222661ZM889.2364047340579 312.2973406557023L905.6706277447073 312.2973406557023Q905.802553846857 310.8273069460341 905.8779401909426 307.88723952669784Q905.9344799490067 304.94717210736144 905.9344799490067 303.15674643532975L905.9344799490067 303.15674643532975Q905.9344799490067 294.0726919730213 904.0121281748253 290.1714486665942Q902.0897764006438 286.25135877414573 897.9246808899173 286.1948190160815L897.9246808899173 286.1948190160815Q893.4768865888701 286.1948190160815 891.3660689544746 290.6614599031502Q889.2364047340579 295.1281007902189 889.2364047340579 306.92606363960704L889.2364047340579 306.92606363960704L889.2364047340579 312.2973406557023Z " fill="#ffffff" transform="matrix(0.9497312379786158,0,0,0.9497312379786158,0,-4.393668186782207)"/></g></svg>